<?xml version="1.0" encoding="utf-8"?>
<svg version="1.1" xmlns:xlink="http://www.w3.org/1999/xlink" width="32px" height="32px" xmlns="http://www.w3.org/2000/svg">
  <defs>
    <filter x="203px" y="1794px" width="32px" height="32px" filterUnits="userSpaceOnUse" id="filter13">
      <feOffset dx="1" dy="1" in="SourceAlpha" result="shadowOffsetInner" />
      <feGaussianBlur stdDeviation="2.5" in="shadowOffsetInner" result="shadowGaussian" />
      <feComposite in2="shadowGaussian" operator="atop" in="SourceAlpha" result="shadowComposite" />
      <feColorMatrix type="matrix" values="0 0 0 0 0  0 0 0 0 0  0 0 0 0 0  0 0 0 0.6980392156862745 0  " in="shadowComposite" />
    </filter>
    <g id="widget14">
      <path d="M 218 1798  C 224.16 1798  229 1802.84  229 1809  C 229 1815.16  224.16 1820  218 1820  C 211.84 1820  207 1815.16  207 1809  C 207 1802.84  211.84 1798  218 1798  Z " fill-rule="nonzero" fill="#00c2ff" stroke="none" />
      <path d="M 218 1798.5  C 223.88 1798.5  228.5 1803.12  228.5 1809  C 228.5 1814.88  223.88 1819.5  218 1819.5  C 212.12 1819.5  207.5 1814.88  207.5 1809  C 207.5 1803.12  212.12 1798.5  218 1798.5  Z " stroke-width="1" stroke="#ffffff" fill="none" />
    </g>
  </defs>
  <g transform="matrix(1 0 0 1 -203 -1794 )">
    <use xlink:href="#widget14" filter="url(#filter13)" />
    <use xlink:href="#widget14" />
  </g>
</svg>