<?xml version="1.0" encoding="utf-8"?>
<svg version="1.1" xmlns:xlink="http://www.w3.org/1999/xlink" width="2255px" height="1010px" xmlns="http://www.w3.org/2000/svg">
  <g transform="matrix(1 0 0 1 662 -27 )">
    <path d="M -662 27  L 1593 27  L 1593 1037  L -662 1037  L -662 27  " fill-rule="nonzero" fill="#cccccc" stroke="none" />
    <path d="M -591 98  L 1522 98  L 1522 966  L -591 966  L -591 98  " fill-rule="nonzero" fill="#ffffff" stroke="none" />
    <path d="M 586.3500000000001 330  C 543.9300000000002 330  510.60000000000014 296.67  510.60000000000014 254.25  C 510.60000000000014 211.82999999999998  543.9300000000002 178.5  586.3500000000001 178.5  C 628.7700000000001 178.5  662.1000000000001 211.82999999999998  662.1000000000001 254.25  C 662.1000000000001 296.67  628.7700000000001 330  586.3500000000001 330  " fill-rule="nonzero" fill="#cccccc" stroke="none" />
    <path d="M -566 941  L -566 491.65  L -50.5 287.4  L 671.2 721.4425720620843  L 1083.6000000000001 409.94999999999993  L 1496 721.4425720620843  L 1496 941  L -566 941  " fill-rule="nonzero" fill="#169bd5" stroke="none" />
  </g>
</svg>