<?xml version="1.0" encoding="utf-8"?>
<svg version="1.1" xmlns:xlink="http://www.w3.org/1999/xlink" width="54px" height="52px" xmlns="http://www.w3.org/2000/svg">
  <g transform="matrix(1 0 0 1 -301 -373 )">
    <path d="M 301 373  L 355 373  L 355 425  L 301 425  L 301 373  " fill-rule="nonzero" fill="#cccccc" stroke="none" />
    <path d="M 305 377  L 351 377  L 351 421  L 305 421  L 305 377  " fill-rule="nonzero" fill="#ffffff" stroke="none" />
    <path d="M 332.98 388.6  C 330.796 388.6  329.08 386.884  329.08 384.70000000000005  C 329.08 382.516  330.796 380.8  332.98 380.8  C 335.164 380.8  336.88 382.516  336.88 384.70000000000005  C 336.88 386.884  335.164 388.6  332.98 388.6  " fill-rule="nonzero" fill="#cccccc" stroke="none" />
    <path d="M 307 420  L 307 397.45  L 317.75 387.2  L 332.8 396.31111111111113  L 341.4 393.35  L 350 396.31111111111113  L 350 420  L 307 420  " fill-rule="nonzero" fill="#169bd5" stroke="none" />
  </g>
</svg>