<?xml version="1.0" encoding="utf-8"?>
<svg version="1.1" xmlns:xlink="http://www.w3.org/1999/xlink" width="25px" height="7px" xmlns="http://www.w3.org/2000/svg">
  <g transform="matrix(1 0 0 1 -1060 -396 )">
    <path d="M 6.3210227272727275 0.5104166666666664  C 6.65246212121212 0.8506944444444414  6.8181818181818175 1.2638888888888875  6.8181818181818175 1.75  L 6.8181818181818175 5.25  C 6.8181818181818175 5.73611111111111  6.65246212121212 6.149305555555554  6.3210227272727275 6.489583333333334  C 5.989583333333334 6.82986111111111  5.587121212121213 7  5.113636363636364 7  L 1.7045454545454544 7  C 1.2310606060606062 7  0.828598484848485 6.82986111111111  0.4971590909090909 6.489583333333334  C 0.16571969696969696 6.149305555555554  0 5.73611111111111  0 5.25  L 0 1.75  C 0 1.2638888888888875  0.16571969696969696 0.8506944444444414  0.4971590909090909 0.5104166666666664  C 0.828598484848485 0.1701388888888875  1.2310606060606062 0  1.7045454545454544 0  L 5.113636363636364 0  C 5.587121212121213 0  5.989583333333334 0.1701388888888875  6.3210227272727275 0.5104166666666664  Z M 15.411931818181818 0.5104166666666664  C 15.743371212121213 0.8506944444444414  15.909090909090908 1.2638888888888875  15.909090909090908 1.75  L 15.909090909090908 5.25  C 15.909090909090908 5.73611111111111  15.743371212121213 6.149305555555554  15.411931818181818 6.489583333333334  C 15.080492424242427 6.82986111111111  14.678030303030305 7  14.204545454545455 7  L 10.795454545454545 7  C 10.321969696969697 7  9.919507575757578 6.82986111111111  9.588068181818182 6.489583333333334  C 9.256628787878789 6.149305555555554  9.090909090909092 5.73611111111111  9.090909090909092 5.25  L 9.090909090909092 1.75  C 9.090909090909092 1.2638888888888875  9.256628787878789 0.8506944444444414  9.588068181818182 0.5104166666666664  C 9.919507575757578 0.1701388888888875  10.321969696969697 0  10.795454545454545 0  L 14.204545454545455 0  C 14.678030303030305 0  15.080492424242427 0.1701388888888875  15.411931818181818 0.5104166666666664  Z M 24.50284090909091 0.5104166666666664  C 24.834280303030305 0.8506944444444414  25 1.2638888888888875  25 1.75  L 25 5.25  C 25 5.73611111111111  24.834280303030305 6.149305555555554  24.50284090909091 6.489583333333334  C 24.171401515151516 6.82986111111111  23.768939393939394 7  23.295454545454543 7  L 19.886363636363637 7  C 19.41287878787879 7  19.010416666666668 6.82986111111111  18.678977272727273 6.489583333333334  C 18.347537878787882 6.149305555555554  18.181818181818183 5.73611111111111  18.181818181818183 5.25  L 18.181818181818183 1.75  C 18.181818181818183 1.2638888888888875  18.347537878787882 0.8506944444444414  18.678977272727273 0.5104166666666664  C 19.010416666666668 0.1701388888888875  19.41287878787879 0  19.886363636363637 0  L 23.295454545454543 0  C 23.768939393939394 0  24.171401515151516 0.1701388888888875  24.50284090909091 0.5104166666666664  Z " fill-rule="nonzero" fill="#aaaaaa" stroke="none" transform="matrix(1 0 0 1 1060 396 )" />
  </g>
</svg>