<?xml version="1.0" encoding="utf-8"?>
<svg version="1.1" xmlns:xlink="http://www.w3.org/1999/xlink" width="27px" height="27px" xmlns="http://www.w3.org/2000/svg">
  <g transform="matrix(1 0 0 1 -1071 -334 )">
    <path d="M 21.041015625 15.416015625000002  C 21.263671875 15.193359374999998  21.375 14.929687499999998  21.375 14.625000000000002  L 21.375 12.375000000000002  C 21.375 12.070312499999998  21.263671875 11.806640624999998  21.041015625 11.583984375000002  C 20.818359375000004 11.361328125  20.554687500000004 11.249999999999998  20.25 11.249999999999998  L 15.750000000000002 11.249999999999998  L 15.750000000000002 6.75  C 15.750000000000002 6.445312499999997  15.638671875000002 6.181640624999997  15.416015624999998 5.958984375  C 15.193359375000002 5.736328125  14.929687500000002 5.625000000000001  14.624999999999998 5.625000000000001  L 12.375 5.625000000000001  C 12.070312500000002 5.625000000000001  11.806640625000002 5.736328125  11.583984375 5.958984375  C 11.361328125 6.181640624999997  11.25 6.445312499999997  11.25 6.75  L 11.25 11.249999999999998  L 6.75 11.249999999999998  C 6.4453125 11.249999999999998  6.181640625 11.361328125  5.958984375 11.583984375000002  C 5.736328125 11.806640624999998  5.625 12.070312499999998  5.625 12.375000000000002  L 5.625 14.625000000000002  C 5.625 14.929687499999998  5.736328125 15.193359374999998  5.958984375 15.416015625000002  C 6.181640625 15.638671875  6.4453125 15.749999999999998  6.75 15.749999999999998  L 11.25 15.749999999999998  L 11.25 20.25  C 11.25 20.5546875  11.361328125 20.818359375  11.583984375 21.041015625  C 11.806640625000002 21.263671875  12.070312500000002 21.375  12.375 21.375  L 14.624999999999998 21.375  C 14.929687500000002 21.375  15.193359375000002 21.263671875  15.416015624999998 21.041015625  C 15.638671875000002 20.818359375  15.750000000000002 20.5546875  15.750000000000002 20.25  L 15.750000000000002 15.749999999999998  L 20.25 15.749999999999998  C 20.554687500000004 15.749999999999998  20.818359375000004 15.638671875  21.041015625 15.416015625000002  Z M 25.189453125 6.7236328125  C 26.396484374999996 8.791992187499996  27 11.050781249999996  27 13.5  C 27 15.94921875  26.396484374999996 18.208007812499996  25.189453125 20.2763671875  C 23.982421875000004 22.3447265625  22.3447265625 23.982421875  20.2763671875 25.189453125  C 18.208007812500004 26.396484375000004  15.94921875 27  13.5 27  C 11.05078125 27  8.7919921875 26.396484375000004  6.7236328125 25.189453125  C 4.6552734375 23.982421875  3.0175781250000004 22.3447265625  1.8105468750000002 20.2763671875  C 0.6035156249999999 18.208007812499996  0 15.94921875  0 13.5  C 0 11.050781249999996  0.6035156249999999 8.791992187499996  1.8105468750000002 6.7236328125  C 3.0175781250000004 4.6552734375  4.6552734375 3.0175781249999973  6.7236328125 1.8105468749999991  C 8.7919921875 0.6035156249999977  11.05078125 0  13.5 0  C 15.94921875 0  18.208007812500004 0.6035156249999977  20.2763671875 1.8105468749999991  C 22.3447265625 3.0175781249999973  23.982421875000004 4.6552734375  25.189453125 6.7236328125  Z " fill-rule="nonzero" fill="#555555" stroke="none" transform="matrix(1 0 0 1 1071 334 )" />
  </g>
</svg>