<?xml version="1.0" encoding="utf-8"?>
<svg version="1.1" xmlns:xlink="http://www.w3.org/1999/xlink" width="92px" height="78px" xmlns="http://www.w3.org/2000/svg">
  <g transform="matrix(1 0 0 1 111 -84 )">
    <path d="M -111 84  L -19 84  L -19 162  L -111 162  L -111 84  " fill-rule="nonzero" fill="#cccccc" stroke="none" />
    <path d="M -106 89  L -24 89  L -24 157  L -106 157  L -106 89  " fill-rule="nonzero" fill="#ffffff" stroke="none" />
    <path d="M -57.309999999999995 107.4  C -60.586 107.4  -63.16 104.82600000000001  -63.16 101.55000000000001  C -63.16 98.274  -60.586 95.7  -57.309999999999995 95.7  C -54.03399999999999 95.7  -51.459999999999994 98.274  -51.459999999999994 101.55000000000001  C -51.459999999999994 104.82600000000001  -54.03399999999999 107.4  -57.309999999999995 107.4  " fill-rule="nonzero" fill="#cccccc" stroke="none" />
    <path d="M -104 155  L -104 119.8  L -84.5 103.8  L -57.2 122.44347826086957  L -41.599999999999994 113.4  L -26 122.44347826086957  L -26 155  L -104 155  " fill-rule="nonzero" fill="#169bd5" stroke="none" />
  </g>
</svg>