<?xml version="1.0" encoding="utf-8"?>
<svg version="1.1" xmlns:xlink="http://www.w3.org/1999/xlink" width="28px" height="31px" xmlns="http://www.w3.org/2000/svg">
  <g transform="matrix(1 0 0 1 391 -330 )">
    <path d="M 2.153846153846154 23.803571428571427  L 2.153846153846154 28.78571428571429  L 7 28.78571428571429  L 7 23.803571428571427  L 2.153846153846154 23.803571428571427  Z M 8.076923076923077 23.803571428571427  L 8.076923076923077 28.78571428571429  L 13.461538461538462 28.78571428571429  L 13.461538461538462 23.803571428571427  L 8.076923076923077 23.803571428571427  Z M 2.153846153846154 17.16071428571429  L 2.153846153846154 22.696428571428573  L 7 22.696428571428573  L 7 17.16071428571429  L 2.153846153846154 17.16071428571429  Z M 8.076923076923077 17.16071428571429  L 8.076923076923077 22.696428571428573  L 13.461538461538462 22.696428571428573  L 13.461538461538462 17.16071428571429  L 8.076923076923077 17.16071428571429  Z M 2.153846153846154 11.07142857142857  L 2.153846153846154 16.053571428571427  L 7 16.053571428571427  L 7 11.07142857142857  L 2.153846153846154 11.07142857142857  Z M 14.53846153846154 23.803571428571427  L 14.53846153846154 28.78571428571429  L 19.923076923076923 28.78571428571429  L 19.923076923076923 23.803571428571427  L 14.53846153846154 23.803571428571427  Z M 8.076923076923077 11.07142857142857  L 8.076923076923077 16.053571428571427  L 13.461538461538462 16.053571428571427  L 13.461538461538462 11.07142857142857  L 8.076923076923077 11.07142857142857  Z M 21 23.803571428571427  L 21 28.78571428571429  L 25.846153846153847 28.78571428571429  L 25.846153846153847 23.803571428571427  L 21 23.803571428571427  Z M 14.53846153846154 17.16071428571429  L 14.53846153846154 22.696428571428573  L 19.923076923076923 22.696428571428573  L 19.923076923076923 17.16071428571429  L 14.53846153846154 17.16071428571429  Z M 8.455528846153847 8.139229910714286  C 8.56209935897436 8.029668898809522  8.615384615384617 7.899925595238092  8.615384615384617 7.75  L 8.615384615384617 2.7678571428571432  C 8.615384615384617 2.617931547619048  8.56209935897436 2.4881882440476177  8.455528846153847 2.3786272321428568  C 8.348958333333334 2.2690662202380922  8.22275641025641 2.2142857142857135  8.076923076923077 2.2142857142857135  L 7 2.2142857142857135  C 6.854166666666667 2.2142857142857135  6.7279647435897445 2.2690662202380922  6.621394230769231 2.3786272321428568  C 6.514823717948717 2.4881882440476177  6.461538461538462 2.617931547619048  6.461538461538462 2.7678571428571432  L 6.461538461538462 7.75  C 6.461538461538462 7.899925595238092  6.514823717948717 8.029668898809522  6.621394230769231 8.139229910714286  C 6.7279647435897445 8.248790922619047  6.854166666666667 8.30357142857143  7 8.30357142857143  L 8.076923076923077 8.30357142857143  C 8.22275641025641 8.30357142857143  8.348958333333334 8.248790922619047  8.455528846153847 8.139229910714286  Z M 21 17.16071428571429  L 21 22.696428571428573  L 25.846153846153847 22.696428571428573  L 25.846153846153847 17.16071428571429  L 21 17.16071428571429  Z M 14.53846153846154 11.07142857142857  L 14.53846153846154 16.053571428571427  L 19.923076923076923 16.053571428571427  L 19.923076923076923 11.07142857142857  L 14.53846153846154 11.07142857142857  Z M 21 11.07142857142857  L 21 16.053571428571427  L 25.846153846153847 16.053571428571427  L 25.846153846153847 11.07142857142857  L 21 11.07142857142857  Z M 21.378605769230766 8.139229910714286  C 21.485176282051285 8.029668898809522  21.53846153846154 7.899925595238092  21.53846153846154 7.75  L 21.53846153846154 2.7678571428571432  C 21.53846153846154 2.617931547619048  21.485176282051285 2.4881882440476177  21.378605769230766 2.3786272321428568  C 21.27203525641026 2.2690662202380922  21.145833333333336 2.2142857142857135  21 2.2142857142857135  L 19.923076923076923 2.2142857142857135  C 19.77724358974359 2.2142857142857135  19.651041666666668 2.2690662202380922  19.544471153846153 2.3786272321428568  C 19.437900641025642 2.4881882440476177  19.384615384615383 2.617931547619048  19.384615384615383 2.7678571428571432  L 19.384615384615383 7.75  C 19.384615384615383 7.899925595238092  19.437900641025642 8.029668898809522  19.544471153846153 8.139229910714286  C 19.651041666666668 8.248790922619047  19.77724358974359 8.30357142857143  19.923076923076923 8.30357142857143  L 21 8.30357142857143  C 21.145833333333336 8.30357142857143  21.27203525641026 8.248790922619047  21.378605769230766 8.139229910714286  Z M 27.360576923076923 5.0859375  C 27.786858974358978 5.5241815476190474  28 6.043154761904761  28 6.642857142857143  L 28 28.78571428571429  C 28 29.385416666666668  27.786858974358978 29.904389880952383  27.360576923076923 30.34263392857143  C 26.934294871794876 30.780877976190474  26.429487179487182 31  25.846153846153847 31  L 2.153846153846154 31  C 1.5705128205128207 31  1.0657051282051282 30.780877976190474  0.6394230769230769 30.34263392857143  C 0.21314102564102563 29.904389880952383  0 29.385416666666668  0 28.78571428571429  L 0 6.642857142857143  C 0 6.043154761904761  0.21314102564102563 5.5241815476190474  0.6394230769230769 5.0859375  C 1.0657051282051282 4.647693452380949  1.5705128205128207 4.42857142857143  2.153846153846154 4.42857142857143  L 4.307692307692308 4.42857142857143  L 4.307692307692308 2.7678571428571432  C 4.307692307692308 2.00669642857143  4.571314102564102 1.3550967261904745  5.098557692307692 0.8130580357142867  C 5.625801282051283 0.27101934523809557  6.259615384615385 0  7 0  L 8.076923076923077 0  C 8.817307692307692 0  9.451121794871796 0.27101934523809557  9.978365384615383 0.8130580357142867  C 10.505608974358974 1.3550967261904745  10.76923076923077 2.00669642857143  10.76923076923077 2.7678571428571432  L 10.76923076923077 4.42857142857143  L 17.230769230769234 4.42857142857143  L 17.230769230769234 2.7678571428571432  C 17.230769230769234 2.00669642857143  17.494391025641026 1.3550967261904745  18.021634615384617 0.8130580357142867  C 18.548878205128208 0.27101934523809557  19.182692307692307 0  19.923076923076923 0  L 21 0  C 21.740384615384617 0  22.37419871794872 0.27101934523809557  22.901442307692307 0.8130580357142867  C 23.4286858974359 1.3550967261904745  23.692307692307693 2.00669642857143  23.692307692307693 2.7678571428571432  L 23.692307692307693 4.42857142857143  L 25.846153846153847 4.42857142857143  C 26.429487179487182 4.42857142857143  26.934294871794876 4.647693452380949  27.360576923076923 5.0859375  Z " fill-rule="nonzero" fill="#aaaaaa" stroke="none" transform="matrix(1 0 0 1 -391 330 )" />
  </g>
</svg>