<?xml version="1.0" encoding="utf-8"?>
<svg version="1.1" xmlns:xlink="http://www.w3.org/1999/xlink" width="39px" height="30px" xmlns="http://www.w3.org/2000/svg">
  <g transform="matrix(1 0 0 1 397 -384 )">
    <path d="M 8.150390625 22.02059659090909  C 8.288225446428571 22.155539772727273  8.357142857142856 22.315340909090907  8.357142857142856 22.5  L 8.357142857142856 23.863636363636363  C 8.357142857142856 24.048295454545453  8.288225446428571 24.20809659090909  8.150390625 24.343039772727273  C 8.012555803571429 24.477982954545453  7.849330357142858 24.545454545454543  7.660714285714286 24.545454545454543  L 6.267857142857143 24.545454545454543  C 6.079241071428573 24.545454545454543  5.916015625 24.477982954545453  5.778180803571429 24.343039772727273  C 5.640345982142858 24.20809659090909  5.571428571428571 24.048295454545453  5.571428571428571 23.863636363636363  L 5.571428571428571 22.5  C 5.571428571428571 22.315340909090907  5.640345982142858 22.155539772727273  5.778180803571429 22.02059659090909  C 5.916015625 21.885653409090907  6.079241071428573 21.81818181818182  6.267857142857143 21.81818181818182  L 7.660714285714286 21.81818181818182  C 7.849330357142858 21.81818181818182  8.012555803571429 21.885653409090907  8.150390625 22.02059659090909  Z M 8.150390625 16.566051136363637  C 8.288225446428571 16.700994318181817  8.357142857142856 16.860795454545453  8.357142857142856 17.045454545454543  L 8.357142857142856 18.40909090909091  C 8.357142857142856 18.59375  8.288225446428571 18.753551136363633  8.150390625 18.88849431818182  C 8.012555803571429 19.023437499999996  7.849330357142858 19.09090909090909  7.660714285714286 19.09090909090909  L 6.267857142857143 19.09090909090909  C 6.079241071428573 19.09090909090909  5.916015625 19.023437499999996  5.778180803571429 18.88849431818182  C 5.640345982142858 18.753551136363633  5.571428571428571 18.59375  5.571428571428571 18.40909090909091  L 5.571428571428571 17.045454545454543  C 5.571428571428571 16.860795454545453  5.640345982142858 16.700994318181817  5.778180803571429 16.566051136363637  C 5.916015625 16.431107954545453  6.079241071428573 16.363636363636363  6.267857142857143 16.363636363636363  L 7.660714285714286 16.363636363636363  C 7.849330357142858 16.363636363636363  8.012555803571429 16.431107954545453  8.150390625 16.566051136363637  Z M 8.150390625 11.111505681818182  C 8.288225446428571 11.246448863636363  8.357142857142856 11.406249999999998  8.357142857142856 11.59090909090909  L 8.357142857142856 12.954545454545453  C 8.357142857142856 13.139204545454547  8.288225446428571 13.29900568181818  8.150390625 13.433948863636363  C 8.012555803571429 13.568892045454545  7.849330357142858 13.636363636363637  7.660714285714286 13.636363636363637  L 6.267857142857143 13.636363636363637  C 6.079241071428573 13.636363636363637  5.916015625 13.568892045454545  5.778180803571429 13.433948863636363  C 5.640345982142858 13.29900568181818  5.571428571428571 13.139204545454547  5.571428571428571 12.954545454545453  L 5.571428571428571 11.59090909090909  C 5.571428571428571 11.406249999999998  5.640345982142858 11.246448863636363  5.778180803571429 11.111505681818182  C 5.916015625 10.976562499999998  6.079241071428573 10.90909090909091  6.267857142857143 10.90909090909091  L 7.660714285714286 10.90909090909091  C 7.849330357142858 10.90909090909091  8.012555803571429 10.976562499999998  8.150390625 11.111505681818182  Z M 33.22181919642858 22.02059659090909  C 33.35965401785714 22.155539772727273  33.42857142857142 22.315340909090907  33.42857142857142 22.5  L 33.42857142857142 23.863636363636363  C 33.42857142857142 24.048295454545453  33.35965401785714 24.20809659090909  33.22181919642858 24.343039772727273  C 33.083984375 24.477982954545453  32.92075892857143 24.545454545454543  32.73214285714286 24  L 11.839285714285714 24  C 11.650669642857144 24.545454545454543  11.487444196428573 24.477982954545453  11.349609375 24.343039772727273  C 11.211774553571429 24.20809659090909  11.142857142857142 24.048295454545453  11.142857142857142 23.863636363636363  L 11.142857142857142 22.5  C 11.142857142857142 22.315340909090907  11.211774553571429 22.155539772727273  11.349609375 22.02059659090909  C 11.487444196428573 21.885653409090907  11.650669642857144 21.81818181818182  11.839285714285714 21.81818181818182  L 32.73214285714286 21.81818181818182  C 32.92075892857143 21.81818181818182  33.083984375 21.885653409090907  33.22181919642858 22.02059659090909  Z M 33.22181919642858 16.566051136363637  C 33.35965401785714 16.700994318181817  33.42857142857142 16.860795454545453  33.42857142857142 17.045454545454543  L 33.42857142857142 18.40909090909091  C 33.42857142857142 18.59375  33.35965401785714 18.753551136363633  33.22181919642858 18.88849431818182  C 33.083984375 19.023437499999996  32.92075892857143 19.09090909090909  32.73214285714286 19  L 11.839285714285714 19  C 11.650669642857144 19.09090909090909  11.487444196428573 19.023437499999996  11.349609375 18.88849431818182  C 11.211774553571429 18.753551136363633  11.142857142857142 18.59375  11.142857142857142 18.40909090909091  L 11.142857142857142 17.045454545454543  C 11.142857142857142 16.860795454545453  11.211774553571429 16.700994318181817  11.349609375 16.566051136363637  C 11.487444196428573 16.431107954545453  11.650669642857144 16.363636363636363  11.839285714285714 16  L 32.73214285714286 16  C 32.92075892857143 16.363636363636363  33.083984375 16.431107954545453  33.22181919642858 16.566051136363637  Z M 33.22181919642858 11.111505681818182  C 33.35965401785714 11.246448863636363  33.42857142857142 11.406249999999998  33.42857142857142 11.59090909090909  L 33.42857142857142 12.954545454545453  C 33.42857142857142 13.139204545454547  33.35965401785714 13.29900568181818  33.22181919642858 13.433948863636363  C 33.083984375 13.568892045454545  32.92075892857143 13.636363636363637  32.73214285714286 14  L 11.839285714285714 14  C 11.650669642857144 13.636363636363637  11.487444196428573 13.568892045454545  11.349609375 13.433948863636363  C 11.211774553571429 13.29900568181818  11.142857142857142 13.139204545454547  11.142857142857142 12.954545454545453  L 11.142857142857142 11.59090909090909  C 11.142857142857142 11.406249999999998  11.211774553571429 11.246448863636363  11.349609375 11.111505681818182  C 11.487444196428573 10.976562499999998  11.650669642857144 10.90909090909091  11.839285714285714 11  L 32.73214285714286 11  C 32.92075892857143 10.90909090909091  33.083984375 10.976562499999998  33.22181919642858 11.111505681818182  Z M 36.00753348214286 27.0703125  C 36.14536830357143 26.93536931818182  36.214285714285715 26.775568181818183  36 26.59090909090909  L 36 8.863636363636363  C 36.214285714285715 8.67897727272727  36.14536830357143 8.519176136363635  36.00753348214286 8.384232954545453  C 35.869698660714285 8.24928977272727  35.706473214285715 8.181818181818182  35.51785714285714 8.181818181818182  L 3.482142857142857 8.181818181818182  C 3.293526785714286 8.181818181818182  3.1303013392857144 8.24928977272727  2.992466517857143 8.384232954545453  C 2.854631696428572 8.519176136363635  2.7857142857142856 8.67897727272727  3 8.863636363636363  L 3 26.59090909090909  C 2.7857142857142856 26.775568181818183  2.854631696428572 26.93536931818182  2.992466517857143 27.0703125  C 3.1303013392857144 27.20525568181818  3.293526785714286 27.272727272727273  3.482142857142857 27  L 35.51785714285714 27  C 35.706473214285715 27.272727272727273  35.869698660714285 27.20525568181818  36.00753348214286 27.0703125  Z M 37.977120535714285 1.001420454545453  C 38.65904017857143 1.6690340909090884  39 2.471590909090909  39 3.409090909090909  L 39 26.59090909090909  C 39 27.52840909090909  38.65904017857143 28.33096590909091  37.977120535714285 28.998579545454547  C 37.29520089285715 29.66619318181818  36.47544642857144 30  35.51785714285714 30  L 3.482142857142857 30  C 2.5245535714285716 30  1.7047991071428572 29.66619318181818  1.0228794642857144 28.998579545454547  C 0.34095982142857145 28.33096590909091  0 27.52840909090909  0 26.59090909090909  L 0 3.409090909090909  C 0 2.471590909090909  0.34095982142857145 1.6690340909090884  1.0228794642857144 1.001420454545453  C 1.7047991071428572 0.33380681818181435  2.5245535714285716 0  3.482142857142857 0  L 35.51785714285714 0  C 36.47544642857144 0  37.29520089285715 0.33380681818181435  37.977120535714285 1.001420454545453  Z " fill-rule="nonzero" fill="#aaaaaa" stroke="none" transform="matrix(1 0 0 1 -397 384 )" />
  </g>
</svg>